<svg width="120" height="50" viewBox="0 0 120 50" fill="none" xmlns="http://www.w3.org/2000/svg">
<g clip-path="url(#clip0_22_2)">
<path d="M8.6349 17.1763C7.05641 17.1763 5.60447 16.7913 4.28448 16.0269C2.96449 15.2624 1.91396 14.2229 1.14397 12.9084C0.384972 11.5939 0 10.1529 0 8.57992C0 7.00694 0.379472 5.57145 1.14397 4.26796C1.91396 2.95347 2.95899 1.91398 4.28448 1.14949C5.60447 0.384995 7.05641 0 8.6349 0C9.83938 0 10.9889 0.236495 12.0999 0.714991C13.2164 1.18799 14.1678 1.90848 14.9598 2.87647C15.7628 3.84446 16.2799 5.02145 16.5219 6.41844H13.4694C13.1559 5.20295 12.5619 4.28996 11.6874 3.67397C10.8129 3.06347 9.76793 2.75547 8.54694 2.75547C7.51845 2.75547 6.58347 3.00297 5.73097 3.49247C4.88948 3.97646 4.21847 4.65846 3.72348 5.54395C3.23398 6.42944 2.99194 7.44693 2.99194 8.59092C2.99194 9.73491 3.23398 10.7689 3.72348 11.6489C4.21297 12.5289 4.87847 13.2054 5.71996 13.6894C6.56695 14.1624 7.51295 14.4044 8.54694 14.4044C9.76793 14.4044 10.8129 14.1019 11.6874 13.4969C12.5619 12.8864 13.1504 11.9679 13.4529 10.7524H16.5164C16.2744 12.1549 15.7573 13.3374 14.9653 14.3054C14.1734 15.2734 13.2164 15.9939 12.1054 16.4668C10.9999 16.9343 9.83938 17.1653 8.62939 17.1653L8.6349 17.1763Z" fill="black"/>
<path d="M26.9444 17.1763C25.3494 17.1763 23.8754 16.7913 22.5224 16.0269C21.1749 15.2624 20.108 14.2229 19.3105 12.9084C18.524 11.5884 18.1335 10.1474 18.1335 8.57992C18.1335 7.01244 18.524 5.57695 19.3105 4.26796C20.1025 2.95347 21.1749 1.91398 22.5224 1.14949C23.8754 0.384995 25.3494 0 26.9444 0C28.5394 0 30.0134 0.384995 31.3664 1.14949C32.7194 1.91398 33.7919 2.95347 34.5783 4.26796C35.3703 5.58245 35.7664 7.01794 35.7664 8.57992C35.7664 10.1419 35.3703 11.5829 34.5783 12.9084C33.7864 14.2229 32.7084 15.2624 31.3554 16.0269C30.0079 16.7913 28.5394 17.1763 26.9444 17.1763ZM26.9444 14.4099C28.0114 14.4099 28.9904 14.1569 29.8759 13.6509C30.7724 13.1449 31.4818 12.4464 32.0043 11.5609C32.5268 10.6754 32.7854 9.68541 32.7854 8.60192C32.7854 7.51843 32.5268 6.51744 32.0043 5.63195C31.4818 4.73546 30.7724 4.03696 29.8759 3.53097C28.9849 3.02497 28.0059 2.77198 26.9444 2.77198C25.8829 2.77198 24.8985 3.02497 24.013 3.53097C23.122 4.03696 22.418 4.74096 21.8955 5.63195C21.384 6.51744 21.1255 7.50743 21.1255 8.60192C21.1255 9.69641 21.3839 10.6754 21.9064 11.5609C22.4289 12.4464 23.133 13.1449 24.024 13.6509C24.915 14.1569 25.8884 14.4099 26.9444 14.4099Z" fill="black"/>
<path d="M46.1778 17.1763C44.5829 17.1763 43.1089 16.7913 41.7559 16.0269C40.4084 15.2624 39.3414 14.2229 38.5439 12.9084C37.7574 11.5884 37.3669 10.1474 37.3669 8.57992C37.3669 7.01244 37.7574 5.57695 38.5439 4.26796C39.3359 2.95347 40.4084 1.91398 41.7559 1.14949C43.1089 0.384995 44.5829 0 46.1778 0C47.7728 0 49.2468 0.384995 50.5998 1.14949C51.9528 1.91398 53.0253 2.95347 53.8118 4.26796C54.6038 5.58245 54.9998 7.01794 54.9998 8.57992C54.9998 10.1419 54.6038 11.5829 53.8118 12.9084C53.0198 14.2229 51.9418 15.2624 50.5888 16.0269C49.2413 16.7913 47.7728 17.1763 46.1778 17.1763ZM46.1778 14.4099C47.2448 14.4099 48.2239 14.1569 49.1094 13.6509C50.0058 13.1449 50.7153 12.4464 51.2378 11.5609C51.7603 10.6754 52.0188 9.68541 52.0188 8.60192C52.0188 7.51843 51.7603 6.51744 51.2378 5.63195C50.7153 4.73546 50.0058 4.03696 49.1094 3.53097C48.2184 3.02497 47.2393 2.77198 46.1778 2.77198C45.1163 2.77198 44.1319 3.02497 43.2464 3.53097C42.3554 4.03696 41.6514 4.74096 41.1289 5.63195C40.6174 6.51744 40.3589 7.50743 40.3589 8.60192C40.3589 9.69641 40.6174 10.6754 41.1399 11.5609C41.6624 12.4464 42.3664 13.1449 43.2574 13.6509C44.1484 14.1569 45.1218 14.4099 46.1778 14.4099Z" fill="black"/>
<path d="M57.7549 0.395996H60.7469V14.1349H68.1278V16.8298H57.7549V0.395996Z" fill="black"/>
<path d="M80.024 3.0746H75.1565V0.390625H87.8779V3.0746H83.0105V16.8245H80.0295V3.0746H80.024Z" fill="black"/>
<path d="M90.3367 0.395996H93.3286V7.21043H101.579V0.395996H104.582V16.8298H101.579V9.89441H93.3286V16.8298H90.3367V0.395996Z" fill="black"/>
<path d="M108.492 0.396126H119.696V3.0911H111.484V7.21056H118.579V9.74604H111.484V14.1295H119.806V16.8245H108.492V0.390625V0.396126Z" fill="black"/>
<path d="M13.2435 49.9946C10.917 49.9946 8.76655 49.4226 6.79757 48.2841C4.83959 47.1346 3.2831 45.5781 2.12261 43.6256C0.978621 41.6676 0.401123 39.5337 0.401123 37.2182C0.401123 34.9027 0.973121 32.7302 2.12261 30.7777C3.2831 28.8198 4.8451 27.2743 6.81408 26.1358C8.79407 24.9973 10.961 24.4253 13.315 24.4253C15.0694 24.4253 16.7909 24.7718 18.4739 25.4703C20.1569 26.1523 21.6034 27.1533 22.8079 28.4733C24.0234 29.7822 24.8209 31.3167 25.1894 33.0822H20.6574C20.0249 31.6412 19.0514 30.5247 17.7369 29.7328C16.4334 28.9298 14.9265 28.5283 13.205 28.5283C11.676 28.5283 10.2735 28.8968 8.99755 29.6282C7.72156 30.3487 6.70405 31.3717 5.95606 32.7082C5.21357 34.0282 4.84513 35.5352 4.84513 37.2237C4.84513 38.9122 5.21357 40.4687 5.95606 41.7776C6.70955 43.0866 7.71604 44.0986 8.98103 44.8191C10.257 45.5286 11.665 45.8806 13.205 45.8806C14.624 45.8806 15.8725 45.6331 16.945 45.1436C18.0175 44.6541 18.892 43.9666 19.5575 43.0921C20.2284 42.2176 20.6739 41.2001 20.8994 40.0507H13.0235V36.3052H25.7394C25.7614 38.9947 25.2774 41.3706 24.2874 43.4331C23.3084 45.4956 21.8674 47.1126 19.9699 48.2731C18.0835 49.4226 15.8394 50.0001 13.2379 50.0001L13.2435 49.9946Z" fill="black"/>
<path d="M29.1274 24.9971H33.5879V45.4569H44.5824V49.4719H29.1274V24.9971Z" fill="black"/>
<path d="M90.9798 24.9977C92.4483 24.9977 93.7407 25.2672 94.8627 25.8062C95.9847 26.3452 96.8482 27.1152 97.4587 28.1107C98.0802 29.1061 98.3882 30.2776 98.3882 31.6196C98.3882 32.3181 98.2507 33.0001 97.9757 33.6711C97.7007 34.3311 97.3267 34.9141 96.8482 35.4146C96.3807 35.9041 95.8692 36.2726 95.3082 36.5146C96.1332 36.7786 96.8812 37.1966 97.5632 37.7741C98.2452 38.3516 98.7787 39.0391 99.1747 39.8421C99.5817 40.634 99.7852 41.4755 99.7852 42.361C99.7852 43.8955 99.4222 45.2045 98.6907 46.2825C97.9647 47.3495 97.0022 48.147 95.8087 48.675C94.6262 49.203 93.3558 49.467 91.9973 49.467H80.3594V24.9922H90.9798V24.9977ZM90.7653 35.2221C91.3483 35.2221 91.8818 35.0846 92.3603 34.8096C92.8388 34.5236 93.2127 34.1386 93.4877 33.6601C93.7627 33.1706 93.9002 32.6206 93.9002 32.0211C93.9002 31.4216 93.7627 30.8991 93.4877 30.4206C93.2127 29.9311 92.8388 29.5461 92.3603 29.2711C91.8928 28.9962 91.3702 28.8587 90.7872 28.8587H84.8583V35.2276H90.7653V35.2221ZM91.6068 45.606C92.2888 45.606 92.8993 45.4575 93.4493 45.155C94.0103 44.8415 94.4448 44.418 94.7583 43.879C95.0663 43.34 95.2257 42.724 95.2257 42.0255C95.2257 41.404 95.0662 40.8265 94.7417 40.2986C94.4337 39.7706 93.9993 39.3581 93.4548 39.0556C92.9158 38.7421 92.3163 38.5881 91.6453 38.5881H84.8583V45.606H91.6068Z" fill="black"/>
<path d="M103.119 24.9971H119.805V29.012H107.574V35.15H118.139V38.9284H107.574V45.4624H119.965V49.4773H103.113V25.0026L103.119 24.9971Z" fill="black"/>
<path d="M62.4126 39.7269C65.8225 41.9324 68.6 43.0709 70.6185 43.6594C70.833 43.7254 70.921 43.9839 70.778 44.1599C68.3965 47.1078 64.7501 48.9943 60.6636 48.9943C57.8312 48.9943 55.2132 48.0923 53.0792 46.5523C52.7162 46.2883 52.9142 45.6999 53.3597 45.7274H53.3707C55.5817 45.8649 61.0101 46.9538 63.9196 44.6219C67.5275 41.7344 59.4866 41.9379 58.6726 40.4254C58.2436 39.6279 59.1951 37.6534 62.4016 39.7269H62.4126Z" fill="#61DFA4"/>
<path d="M73.3499 38.868V38.8845C73.0309 40.298 71.6119 41.2165 70.1929 40.9195C66.9314 40.232 63.208 37.295 60.205 36.9265C58.159 36.679 56.6136 37.581 56.1956 38.428C55.5796 39.6545 56.146 41.1505 57.389 41.7335C58.0435 42.0415 58.8575 42.3659 59.666 42.5584C61.492 42.9874 60.326 45.7869 57.059 44.5054C54.4576 43.4824 52.3786 41.453 49.8046 42.4209C49.5956 42.4979 49.3591 42.4044 49.2491 42.2064C48.5781 40.9745 48.0996 39.6215 47.8576 38.1915C47.8191 37.955 47.9676 37.7295 48.1986 37.6745C49.3261 37.3995 50.8661 36.8935 52.2796 35.9915C56.4761 33.3075 60.887 31.9765 65.9194 35.9915C68.9169 38.384 71.3644 39.11 73.3444 38.8515C73.3499 38.8515 73.3554 38.8515 73.3554 38.8625L73.3499 38.868Z" fill="#61DFA4"/>
<path d="M50.3207 28.8465C50.1227 28.731 50.0732 28.4614 50.2107 28.2745C52.5757 25.0735 56.3816 23 60.6661 23C62.7176 23 64.659 23.4785 66.386 24.3255C66.5895 24.4245 66.694 24.661 66.6225 24.881C66.463 25.365 66.1385 25.86 65.5665 26.322C63.097 28.3184 60.7321 26.674 59.1536 25.6235C57.0526 24.2265 54.7206 26.091 52.5096 28.1864C51.5196 29.1269 50.8046 29.1324 50.3207 28.8465Z" fill="#61DFA4"/>
<path d="M73.6392 35.134C73.6557 35.4145 73.4686 35.6675 73.1991 35.739C69.7727 36.6575 65.2077 35.5905 67.8972 32.7305C69.7617 30.7506 67.0832 29.3481 62.1828 31.9165C58.6243 33.781 58.1953 28.0886 53.7899 32.032C51.0949 34.441 49.1369 35.2165 48.0094 35.453C47.8389 35.486 47.6849 35.354 47.6959 35.178C47.7564 34.188 47.9269 33.2255 48.2019 32.307C48.2624 32.109 48.4659 31.999 48.6639 32.054C49.5054 32.296 50.8419 32.12 52.7393 30.2776C56.3528 26.7796 58.2668 26.7411 60.7858 28.7596C63.1453 30.6516 67.2427 28.9466 69.2612 26.8511C69.4372 26.6696 69.7287 26.6641 69.9102 26.8511C70.1852 27.1261 70.4437 27.4176 70.6912 27.7201C71.9232 29.2051 72.8252 30.976 73.2982 32.912C73.4742 33.6325 73.5897 34.375 73.6392 35.134Z" fill="#61DFA4"/>
</g>
<defs>
<clipPath id="clip0_22_2">
<rect width="120" height="50" fill="white"/>
</clipPath>
</defs>
</svg>
