<svg width="221" height="82" viewBox="0 0 221 82" fill="none" xmlns="http://www.w3.org/2000/svg">
<path d="M142.926 39.75C142.926 39.6 142.926 39.4 142.926 39.2C142.926 35.9 142.926 32.55 142.926 29.25C142.926 28.35 143.076 28.2 143.976 28.2C147.426 28.2 150.926 28.2 154.376 28.2C155.026 28.2 155.326 28.55 155.276 29.15C155.226 29.65 154.926 29.85 154.426 29.85C152.376 29.85 150.376 29.85 148.326 29.85C147.376 29.85 146.426 29.9 145.476 29.85C145.026 29.85 144.926 30 144.926 30.4C144.926 33.9 144.926 37.4 144.926 40.9C144.926 41.1 144.926 41.3 144.876 41.45C144.826 41.85 144.626 42.05 144.176 42.05C142.226 42.05 142.226 42.05 140.876 40.65C137.276 36.95 133.726 33.2 130.126 29.5C130.026 29.4 129.876 29.25 129.776 29.1C129.476 28.7 129.676 28.2 130.176 28.15C131.026 28.05 131.726 28.1 132.426 28.85C135.826 32.45 139.276 36 142.676 39.55C142.726 39.7 142.776 39.8 142.926 39.75Z" fill="black"/>
<path d="M103.176 28C105.126 28.05 107.026 28.4 108.626 29.55C109.226 29.95 109.376 30.25 109.076 30.6C108.676 31.15 108.126 31.25 107.576 30.9C105.326 29.55 102.926 29.4 100.476 30.2C99.8757 30.4 99.5257 30.9 99.4757 31.5C99.4257 32.15 99.9257 32.4 100.376 32.65C101.176 33.1 102.126 33.2 103.026 33.45C104.776 33.95 106.626 34.25 108.326 34.95C109.426 35.35 110.326 36 110.576 37.25C110.826 38.6 110.576 39.7 109.426 40.55C107.526 42 105.376 42.25 103.126 42.1C101.776 42 100.476 41.7 99.2757 41.05C98.4757 40.65 97.8257 40.1 97.2257 39.45C96.8757 39.05 96.9257 38.75 97.4257 38.5C97.6257 38.4 97.7757 38.3 97.9757 38.2C98.2757 38.05 98.5257 38.1 98.7757 38.35C100.026 39.7 101.626 40.35 103.476 40.35C104.476 40.35 105.426 40.35 106.376 40.1C107.026 39.95 107.576 39.6 108.026 39.15C108.926 38.3 108.726 37.1 107.576 36.6C107.126 36.4 106.676 36.3 106.176 36.15C104.376 35.7 102.626 35.25 100.826 34.75C100.026 34.55 99.3257 34.2 98.6257 33.8C96.8757 32.7 96.9757 30.1 98.6257 29.1C100.076 28.35 101.576 28.05 103.176 28Z" fill="black"/>
<path d="M126.926 33.05C126.926 34.2 126.926 35.3 126.926 36.45C126.926 39.15 125.626 41.05 123.026 41.85C120.476 42.65 117.976 42.6 115.576 41.3C113.926 40.4 112.976 38.9 112.976 36.95C112.926 34.25 112.976 31.6 112.926 28.9C112.926 28.4 113.126 28.2 113.626 28.2C114.826 28.2 114.826 28.2 114.826 29.4C114.826 31.8 114.826 34.2 114.826 36.6C114.826 38.2 115.576 39.4 117.076 40C118.926 40.75 120.826 40.75 122.676 40C124.226 39.4 124.926 38.25 124.926 36.6C124.926 34.2 124.926 31.75 124.926 29.35C124.926 29 124.776 28.5 125.176 28.3C125.626 28.1 126.126 28.2 126.626 28.25C126.926 28.3 126.876 28.6 126.876 28.8C126.926 30.25 126.926 31.65 126.926 33.05Z" fill="black"/>
<path d="M172.126 32.9C172.126 34.05 172.126 35.25 172.126 36.4C172.126 39.1 170.826 41 168.226 41.85C166.026 42.55 163.776 42.55 161.576 41.7C159.376 40.85 158.126 39 158.126 36.65C158.126 34.1 158.126 31.55 158.126 29C158.126 28.35 158.226 28.25 158.926 28.25C159.076 28.25 159.176 28.25 159.326 28.25C159.876 28.2 160.076 28.4 160.076 28.95C160.076 31.25 160.126 33.6 160.076 35.9C159.976 38.95 161.476 39.95 163.776 40.4C165.126 40.65 166.426 40.55 167.726 40.1C169.426 39.5 170.226 38.35 170.226 36.5C170.226 34.05 170.226 31.55 170.226 29.1C170.226 28.3 170.276 28.25 171.076 28.25C171.226 28.25 171.426 28.25 171.576 28.25C172.026 28.2 172.176 28.45 172.176 28.85C172.126 30.2 172.126 31.55 172.126 32.9Z" fill="black"/>
<path d="M175.026 35.1C175.026 33.1 175.026 31.1 175.026 29.1C175.026 28.35 175.176 28.25 175.876 28.25C179.376 28.25 182.876 28.25 186.376 28.25C187.076 28.25 187.276 28.45 187.276 29.05C187.276 29.7 187.076 29.9 186.426 29.9C183.726 29.9 181.026 29.9 178.326 29.9C178.026 29.9 177.726 29.95 177.426 29.9C177.026 29.85 176.926 30 176.926 30.4C176.926 33.15 176.926 35.9 176.926 38.65C176.926 39.15 176.726 39.85 177.026 40.2C177.326 40.55 178.076 40.3 178.576 40.3C181.126 40.3 183.676 40.3 186.226 40.3C187.026 40.3 187.426 40.75 187.226 41.55C187.126 41.9 186.926 42.15 186.526 42.15C182.976 42.15 179.426 42.15 175.826 42.15C175.276 42.15 174.976 41.85 174.976 41.25C175.026 39.15 175.026 37.15 175.026 35.1Z" fill="black"/>
<path d="M190.326 35.05C190.326 33.1 190.326 31.15 190.326 29.2C190.326 28.35 190.426 28.2 191.276 28.2C192.226 28.2 192.276 28.25 192.276 29.15C192.276 32.65 192.276 36.15 192.276 39.6C192.276 40.1 192.426 40.2 192.926 40.2C195.676 40.2 198.376 40.2 201.126 40.2C201.826 40.2 202.276 40.65 202.126 41.3C202.026 41.75 201.826 42.05 201.276 42.05C197.926 42.05 194.626 42.05 191.276 42.05C190.626 42.05 190.326 41.75 190.326 41.1C190.326 39.1 190.326 37.1 190.326 35.05Z" fill="black"/>
<path d="M145.926 48.95C145.876 49.05 145.826 49.2 145.776 49.25C145.726 49.3 145.676 49.4 145.626 49.45L139.276 47.85C139.976 47.4 140.826 47.15 141.776 47.15C142.776 47.15 143.826 47.15 144.826 47.15C145.976 47.15 146.376 47.85 145.926 48.95Z" fill="#35C4EE"/>
<path d="M145.626 49.45C145.626 49.5 145.576 49.5 145.576 49.55L139.176 47.9C139.226 47.85 139.276 47.85 139.276 47.8L145.626 49.45Z" fill="#35C4EE"/>
<path d="M145.526 49.55C145.526 49.6 145.476 49.6 145.476 49.65L139.026 48C139.076 47.95 139.076 47.95 139.126 47.9L145.526 49.55Z" fill="#35C3ED"/>
<path d="M145.476 49.65C145.476 49.7 145.426 49.7 145.426 49.75L138.926 48.1C138.976 48.05 139.026 48.05 139.026 48L145.476 49.65Z" fill="#34C2EC"/>
<path d="M145.426 49.75C145.376 49.8 145.376 49.8 145.376 49.85L138.876 48.2C138.926 48.15 138.926 48.15 138.976 48.1L145.426 49.75Z" fill="#34C1EB"/>
<path d="M145.326 49.85C145.326 49.9 145.276 49.9 145.276 49.95L138.726 48.3C138.776 48.25 138.776 48.25 138.826 48.2L145.326 49.85Z" fill="#33C0EA"/>
<path d="M145.276 49.95C145.276 50 145.226 50 145.226 50.05L138.626 48.4C138.676 48.35 138.676 48.35 138.726 48.3L145.276 49.95Z" fill="#33BFEA"/>
<path d="M145.176 50.05C145.176 50.1 145.126 50.1 145.126 50.15L138.526 48.45C138.526 48.4 138.576 48.4 138.626 48.35L145.176 50.05Z" fill="#33BEE9"/>
<path d="M145.126 50.15C145.126 50.2 145.076 50.2 145.076 50.25L138.476 48.55C138.526 48.5 138.526 48.5 138.576 48.45L145.126 50.15Z" fill="#32BDE8"/>
<path d="M145.076 50.25C145.076 50.3 145.026 50.3 145.026 50.35L138.376 48.65C138.426 48.6 138.426 48.6 138.476 48.55L145.076 50.25Z" fill="#32BCE7"/>
<path d="M144.976 50.35C144.976 50.4 144.926 50.4 144.926 50.45L138.276 48.75C138.276 48.7 138.326 48.7 138.376 48.65L144.976 50.35Z" fill="#31BBE6"/>
<path d="M144.926 50.4C144.926 50.45 144.876 50.45 144.876 50.5L138.226 48.8C138.226 48.75 138.276 48.75 138.326 48.7L144.926 50.4Z" fill="#31BAE5"/>
<path d="M144.826 50.5C144.826 50.55 144.776 50.55 144.776 50.6L138.126 48.9C138.126 48.85 138.176 48.85 138.226 48.8L144.826 50.5Z" fill="#30B9E4"/>
<path d="M144.776 50.6C144.776 50.65 144.726 50.65 144.676 50.7L138.026 49C138.076 48.95 138.076 48.95 138.126 48.9L144.776 50.6Z" fill="#30B8E3"/>
<path d="M144.676 50.7C144.676 50.75 144.626 50.75 144.626 50.8L137.976 49.1L138.026 49.05C138.026 49.05 138.026 49.05 138.026 49L144.676 50.7Z" fill="#30B7E2"/>
<path d="M144.626 50.8C144.626 50.85 144.576 50.85 144.576 50.9L137.926 49.2C137.926 49.15 137.976 49.15 138.026 49.1L144.626 50.8Z" fill="#2FB6E1"/>
<path d="M144.576 50.9C144.576 50.95 144.526 50.95 144.526 51L137.876 49.3C137.876 49.25 137.926 49.25 137.926 49.2L144.576 50.9Z" fill="#2FB5E1"/>
<path d="M144.476 51C144.476 51.05 144.426 51.05 144.426 51.1L137.776 49.4C137.776 49.35 137.826 49.35 137.826 49.3L144.476 51Z" fill="#2EB4E0"/>
<path d="M144.426 51.1C144.426 51.15 144.376 51.15 144.376 51.2L137.726 49.5C137.726 49.45 137.776 49.45 137.776 49.4L144.426 51.1Z" fill="#2EB3DF"/>
<path d="M144.326 51.2C144.326 51.25 144.276 51.25 144.276 51.3L137.626 49.6C137.626 49.55 137.676 49.55 137.676 49.5L144.326 51.2Z" fill="#2EB2DE"/>
<path d="M144.276 51.3C144.276 51.35 144.226 51.35 144.226 51.4L137.576 49.7C137.576 49.65 137.626 49.65 137.626 49.6L144.276 51.3Z" fill="#2DB1DD"/>
<path d="M144.226 51.4C144.226 51.45 144.176 51.45 144.126 51.5L137.476 49.8C137.476 49.75 137.526 49.75 137.526 49.7L144.226 51.4Z" fill="#2DB0DC"/>
<path d="M144.126 51.5C144.126 51.55 144.076 51.55 144.076 51.6L137.426 49.9C137.426 49.85 137.476 49.85 137.476 49.8L144.126 51.5Z" fill="#2CAFDB"/>
<path d="M144.076 51.6C144.076 51.65 144.026 51.65 144.026 51.7L137.376 50C137.376 49.95 137.426 49.95 137.476 49.9L144.076 51.6Z" fill="#2CAEDA"/>
<path d="M143.976 51.65C143.976 51.7 143.926 51.7 143.926 51.75L137.276 50.05C137.276 50 137.326 50 137.326 49.95L143.976 51.65Z" fill="#2BADD9"/>
<path d="M143.926 51.75C143.926 51.8 143.876 51.8 143.876 51.85L137.226 50.15C137.226 50.1 137.276 50.1 137.326 50.05L143.926 51.75Z" fill="#2BACD8"/>
<path d="M143.826 51.85C143.826 51.9 143.776 51.9 143.776 51.95L137.076 50.25C137.076 50.2 137.126 50.2 137.126 50.15L143.826 51.85Z" fill="#2BABD8"/>
<path d="M143.776 51.95C143.726 52 143.726 52 143.726 52.05L137.026 50.35C137.026 50.3 137.076 50.3 137.076 50.25L143.776 51.95Z" fill="#2AAAD7"/>
<path d="M143.726 52.05C143.726 52.1 143.676 52.1 143.676 52.15L136.976 50.45C136.976 50.4 137.026 50.4 137.026 50.35L143.726 52.05Z" fill="#2AA9D6"/>
<path d="M143.626 52.15C143.626 52.2 143.576 52.2 143.576 52.25L136.876 50.55C136.876 50.5 136.926 50.5 136.926 50.45L143.626 52.15Z" fill="#29A8D5"/>
<path d="M143.576 52.25C143.576 52.3 143.526 52.3 143.526 52.35L136.826 50.65C136.826 50.6 136.876 50.6 136.876 50.55L143.576 52.25Z" fill="#29A7D4"/>
<path d="M143.476 52.35C143.476 52.4 143.426 52.4 143.426 52.45L136.726 50.75C136.726 50.7 136.776 50.7 136.776 50.65L143.476 52.35Z" fill="#29A6D3"/>
<path d="M143.426 52.45C143.426 52.5 143.376 52.5 143.326 52.55L136.626 50.85C136.626 50.8 136.676 50.8 136.676 50.75L143.426 52.45Z" fill="#28A5D2"/>
<path d="M143.376 52.55C143.376 52.6 143.326 52.6 143.326 52.65L136.626 50.95C136.676 50.9 136.676 50.9 136.726 50.85L143.376 52.55Z" fill="#28A4D1"/>
<path d="M143.276 52.65C143.276 52.7 143.226 52.7 143.226 52.75L136.526 51.05C136.526 51 136.576 51 136.576 50.95L143.276 52.65Z" fill="#27A3D0"/>
<path d="M143.226 52.75C143.226 52.8 143.176 52.8 143.176 52.85L136.476 51.15C136.476 51.1 136.526 51.1 136.576 51.05L143.226 52.75Z" fill="#27A2CF"/>
<path d="M143.126 52.85C143.126 52.9 143.076 52.9 143.076 52.95L136.376 51.25C136.376 51.2 136.426 51.2 136.426 51.15L143.126 52.85Z" fill="#27A1CF"/>
<path d="M143.076 52.95C143.076 53 143.026 53 143.026 53.05L136.326 51.35C136.326 51.3 136.376 51.3 136.376 51.25L143.076 52.95Z" fill="#26A0CE"/>
<path d="M143.026 53C143.026 53.05 142.976 53.05 142.976 53.1L136.276 51.4C136.276 51.35 136.326 51.35 136.326 51.3L143.026 53Z" fill="#269FCD"/>
<path d="M142.926 53.1C142.926 53.15 142.876 53.15 142.876 53.2L136.176 51.5C136.176 51.45 136.226 51.45 136.226 51.4L142.926 53.1Z" fill="#259ECC"/>
<path d="M142.876 53.2C142.876 53.25 142.826 53.25 142.776 53.3L136.076 51.6C136.076 51.55 136.126 51.55 136.126 51.5L142.876 53.2Z" fill="#259DCB"/>
<path d="M142.776 53.3C142.776 53.35 142.726 53.35 142.726 53.4L136.026 51.7C136.026 51.65 136.076 51.65 136.076 51.6L142.776 53.3Z" fill="#249CCA"/>
<path d="M142.726 53.4C142.676 53.45 142.676 53.45 142.676 53.5L135.976 51.8C135.976 51.75 136.026 51.75 136.076 51.7L142.726 53.4Z" fill="#249BC9"/>
<path d="M142.676 53.5C142.676 53.55 142.626 53.55 142.626 53.6L135.926 51.9C135.976 51.85 135.976 51.85 135.976 51.8L142.676 53.5Z" fill="#249AC8"/>
<path d="M142.576 53.6C142.576 53.65 142.526 53.65 142.526 53.7L135.826 52C135.826 51.95 135.876 51.95 135.876 51.9L142.576 53.6Z" fill="#2399C7"/>
<path d="M142.526 53.7C142.526 53.75 142.476 53.75 142.476 53.8L135.776 52.1C135.776 52.05 135.826 52.05 135.876 52L142.526 53.7Z" fill="#2398C6"/>
<path d="M142.426 53.8C142.426 53.85 142.376 53.85 142.376 53.9L135.676 52.2C135.726 52.15 135.726 52.15 135.726 52.1L142.426 53.8Z" fill="#2297C6"/>
<path d="M142.376 53.9C142.376 53.95 142.326 53.95 142.326 54L135.626 52.3C135.626 52.25 135.676 52.25 135.676 52.2L142.376 53.9Z" fill="#2296C5"/>
<path d="M142.276 54C142.276 54.05 142.226 54.05 142.226 54.1L135.526 52.4C135.526 52.35 135.576 52.35 135.576 52.3L142.276 54Z" fill="#2295C4"/>
<path d="M142.226 54.1C142.226 54.15 142.176 54.15 142.176 54.2L135.476 52.5C135.476 52.45 135.526 52.45 135.576 52.4L142.226 54.1Z" fill="#2194C3"/>
<path d="M142.176 54.2C142.126 54.25 142.126 54.25 142.076 54.3L135.376 52.6C135.376 52.55 135.426 52.55 135.426 52.5L142.176 54.2Z" fill="#2193C2"/>
<path d="M142.076 54.3C142.076 54.35 142.026 54.35 142.026 54.4L135.326 52.7C135.326 52.65 135.376 52.65 135.376 52.6L142.076 54.3Z" fill="#2091C1"/>
<path d="M142.026 54.35C142.026 54.4 141.976 54.4 141.976 54.45L135.276 52.75C135.276 52.7 135.326 52.7 135.376 52.65L142.026 54.35Z" fill="#2090C0"/>
<path d="M141.926 54.45C141.876 54.5 141.876 54.5 141.876 54.55L135.176 52.85C135.176 52.8 135.226 52.8 135.226 52.75L141.926 54.45Z" fill="#1F8FBF"/>
<path d="M141.876 54.55C141.876 54.6 141.826 54.6 141.776 54.65L135.076 52.95C135.076 52.9 135.126 52.9 135.126 52.85L141.876 54.55Z" fill="#1F8EBE"/>
<path d="M141.776 54.65C141.776 54.7 141.726 54.7 141.726 54.75L135.026 53.05C135.026 53 135.076 53 135.076 52.95L141.776 54.65Z" fill="#1F8DBD"/>
<path d="M141.726 54.75C141.726 54.8 141.676 54.8 141.676 54.85L134.976 53.15C134.976 53.1 135.026 53.1 135.076 53.05L141.726 54.75Z" fill="#1E8CBD"/>
<path d="M141.676 54.85C141.626 54.9 141.626 54.9 141.626 54.95L134.926 53.25C134.926 53.2 134.976 53.2 134.976 53.15L141.676 54.85Z" fill="#1E8BBC"/>
<path d="M141.576 54.95C141.576 55 141.526 55 141.526 55.05L134.826 53.35C134.826 53.3 134.876 53.3 134.876 53.25L141.576 54.95Z" fill="#1D8ABB"/>
<path d="M141.526 55.05C141.526 55.1 141.476 55.1 141.476 55.15L134.776 53.45C134.776 53.4 134.826 53.4 134.876 53.35L141.526 55.05Z" fill="#1D89BA"/>
<path d="M141.426 55.15C141.376 55.2 141.376 55.2 141.376 55.25L134.676 53.55C134.676 53.5 134.726 53.5 134.726 53.45L141.426 55.15Z" fill="#1D88B9"/>
<path d="M141.376 55.25C141.376 55.3 141.326 55.3 141.326 55.35L134.626 53.65C134.626 53.6 134.676 53.6 134.676 53.55L141.376 55.25Z" fill="#1C87B8"/>
<path d="M141.326 55.35C141.326 55.4 141.276 55.4 141.276 55.45L134.576 53.75C134.576 53.7 134.626 53.7 134.676 53.65L141.326 55.35Z" fill="#1C86B7"/>
<path d="M141.226 55.45C141.226 55.5 141.176 55.5 141.176 55.55L134.476 53.85C134.476 53.8 134.526 53.8 134.526 53.75L141.226 55.45Z" fill="#1B85B6"/>
<path d="M141.176 55.55C141.126 55.6 141.126 55.6 141.126 55.65L134.426 53.95C134.426 53.9 134.476 53.9 134.476 53.85L141.176 55.55Z" fill="#1B84B5"/>
<path d="M141.076 55.6C141.076 55.65 141.026 55.65 141.026 55.7L134.326 54C134.326 53.95 134.376 53.95 134.376 53.9L141.076 55.6Z" fill="#1A83B4"/>
<path d="M141.026 55.7C141.026 55.75 140.976 55.75 140.976 55.8L134.276 54.1C134.276 54.05 134.326 54.05 134.376 54L141.026 55.7Z" fill="#1A82B4"/>
<path d="M140.926 55.8C140.876 55.85 140.876 55.85 140.876 55.9L134.176 54.2C134.176 54.15 134.226 54.15 134.226 54.1L140.926 55.8Z" fill="#1A81B3"/>
<path d="M140.876 55.9C140.876 55.95 140.826 55.95 140.776 56L134.076 54.3C134.076 54.25 134.126 54.25 134.126 54.2L140.876 55.9Z" fill="#1980B2"/>
<path d="M140.776 56C140.776 56.05 140.726 56.05 140.726 56.1L134.026 54.4C134.026 54.35 134.076 54.35 134.076 54.3L140.776 56Z" fill="#197FB1"/>
<path d="M140.726 56.1C140.726 56.15 140.676 56.15 140.676 56.2L133.976 54.5C133.976 54.45 134.026 54.45 134.026 54.4L140.726 56.1Z" fill="#187EB0"/>
<path d="M140.676 56.2C140.676 56.25 140.626 56.25 140.626 56.3L133.926 54.6C133.926 54.55 133.976 54.55 133.976 54.5L140.676 56.2Z" fill="#187DAF"/>
<path d="M140.576 56.3C140.576 56.35 140.526 56.35 140.476 56.4L133.776 54.7C133.776 54.65 133.826 54.65 133.826 54.6L140.576 56.3Z" fill="#187CAE"/>
<path d="M140.526 56.4C140.526 56.45 140.476 56.45 140.476 56.5L133.776 54.8C133.776 54.75 133.826 54.75 133.826 54.7L140.526 56.4Z" fill="#177BAD"/>
<path d="M140.426 56.5C140.376 56.55 140.376 56.55 140.326 56.6L133.626 54.9C133.626 54.9 133.626 54.9 133.676 54.85L133.726 54.8L140.426 56.5Z" fill="#177AAC"/>
<path d="M140.376 56.6C140.376 56.65 140.326 56.65 140.326 56.7L133.626 55C133.626 54.95 133.676 54.95 133.676 54.9L140.376 56.6Z" fill="#1679AB"/>
<path d="M140.276 56.7C140.276 56.75 140.226 56.75 140.226 56.8L133.526 55.1C133.526 55.05 133.576 55.05 133.576 55L140.276 56.7Z" fill="#1678AB"/>
<path d="M140.226 56.75C140.176 56.8 140.176 56.8 140.126 56.85L133.426 55.15C133.426 55.1 133.476 55.1 133.476 55.05L140.226 56.75Z" fill="#1677AA"/>
<path d="M140.126 56.85C140.126 56.9 140.076 56.9 140.076 56.95L133.376 55.25C133.376 55.2 133.426 55.2 133.426 55.15L140.126 56.85Z" fill="#1576A9"/>
<path d="M140.076 56.95C140.076 57 140.026 57 140.026 57.05L133.326 55.35C133.326 55.3 133.376 55.3 133.376 55.25L140.076 56.95Z" fill="#1575A8"/>
<path d="M140.026 57.05C139.976 57.1 139.976 57.1 139.976 57.15L133.276 55.45C133.276 55.4 133.326 55.4 133.326 55.35L140.026 57.05Z" fill="#1474A7"/>
<path d="M139.926 57.15C139.926 57.2 139.876 57.2 139.826 57.25L133.126 55.55C133.176 55.5 133.176 55.5 133.226 55.45L139.926 57.15Z" fill="#1473A6"/>
<path d="M139.876 57.25C139.876 57.3 139.826 57.3 139.826 57.35L133.126 55.65C133.126 55.6 133.176 55.6 133.176 55.55L139.876 57.25Z" fill="#1372A5"/>
<path d="M139.776 57.35C139.776 57.4 139.726 57.4 139.726 57.45L133.026 55.75C133.026 55.7 133.076 55.7 133.076 55.65L139.776 57.35Z" fill="#1371A4"/>
<path d="M139.726 57.45C139.676 57.5 139.676 57.45 139.726 57.45C139.676 57.5 139.676 57.55 139.626 57.55L132.926 55.85C132.926 55.8 132.976 55.8 132.976 55.75L139.726 57.45Z" fill="#1370A3"/>
<path d="M139.626 57.55C139.626 57.6 139.576 57.6 139.576 57.65L132.876 55.95C132.926 55.9 132.926 55.9 132.926 55.85L139.626 57.55Z" fill="#126FA2"/>
<path d="M139.576 57.65C139.526 57.7 139.526 57.7 139.476 57.75L132.826 56.05C132.826 56 132.876 56 132.876 55.95L139.576 57.65Z" fill="#126EA2"/>
<path d="M139.476 57.75C139.476 57.8 139.426 57.8 139.376 57.85L132.726 56.15C132.726 56.1 132.776 56.1 132.776 56.05L139.476 57.75Z" fill="#116DA1"/>
<path d="M139.426 57.85C139.426 57.9 139.376 57.9 139.326 57.95L132.676 56.25C132.676 56.2 132.726 56.2 132.726 56.15L139.426 57.85Z" fill="#116CA0"/>
<path d="M139.326 57.9C139.276 57.95 139.276 57.95 139.226 58L132.626 56.3C132.626 56.25 132.676 56.25 132.676 56.2L139.326 57.9Z" fill="#116B9F"/>
<path d="M139.226 58L139.126 58.1L132.526 56.4C132.526 56.35 132.576 56.35 132.576 56.3L139.226 58Z" fill="#106A9E"/>
<path d="M139.126 58.1C139.076 58.15 139.076 58.15 139.026 58.2L132.476 56.55C132.476 56.5 132.526 56.5 132.526 56.45L139.126 58.1Z" fill="#10699D"/>
<path d="M139.026 58.2C138.976 58.25 138.976 58.25 138.926 58.3L132.426 56.6C132.426 56.55 132.476 56.55 132.476 56.5L139.026 58.2Z" fill="#0F689C"/>
<path d="M138.926 58.3C138.876 58.35 138.876 58.35 138.826 58.4L132.326 56.75C132.326 56.7 132.376 56.7 132.376 56.65L138.926 58.3Z" fill="#0F679B"/>
<path d="M138.826 58.35C138.776 58.4 138.776 58.4 138.726 58.45L132.276 56.8C132.276 56.75 132.326 56.75 132.326 56.7L138.826 58.35Z" fill="#0E669A"/>
<path d="M138.726 58.45C138.676 58.5 138.626 58.5 138.626 58.55L132.226 56.9C132.226 56.85 132.276 56.85 132.276 56.8L138.726 58.45Z" fill="#0E6599"/>
<path d="M138.576 58.55C138.526 58.6 138.476 58.6 138.426 58.65L132.126 57.05C132.126 57 132.176 57 132.176 56.95L138.576 58.55Z" fill="#0E6499"/>
<path d="M138.476 58.6C138.426 58.65 138.376 58.65 138.326 58.7L132.076 57.1C132.076 57.05 132.126 57.05 132.126 57L138.476 58.6Z" fill="#0D6398"/>
<path d="M138.326 58.7C138.276 58.7 138.226 58.75 138.176 58.75L132.026 57.2C132.026 57.15 132.076 57.15 132.076 57.1L138.326 58.7Z" fill="#0D6297"/>
<path d="M138.176 58.75C138.126 58.8 138.076 58.8 138.026 58.85L131.976 57.3V57.25C131.976 57.25 131.976 57.2 132.026 57.2L138.176 58.75Z" fill="#0C6196"/>
<path d="M138.026 58.85L137.876 58.9L131.926 57.4C131.926 57.35 131.976 57.35 131.976 57.3L138.026 58.85Z" fill="#0C6095"/>
<path d="M137.876 58.9C137.226 59.15 136.526 59.25 135.776 59.2C135.376 59.15 134.976 59.2 134.626 59.2C134.126 59.2 133.626 59.2 133.126 59.2C131.776 59.2 131.326 58.5 131.926 57.4L137.876 58.9Z" fill="#0C6095"/>
<path d="M131.826 37.6C131.826 38.85 131.826 40.1 131.826 41.35C131.826 42 131.726 42.1 131.076 42.1C129.926 42.1 129.826 42.35 129.826 40.85C129.826 38.55 129.826 36.3 129.826 34C129.826 33.2 129.876 33.1 130.676 33.1C130.826 33.1 130.976 33.1 131.126 33.1C131.626 33.05 131.826 33.3 131.826 33.8C131.826 35.1 131.826 36.35 131.826 37.6Z" fill="black"/>
<path d="M182.376 35.95C181.326 35.95 180.326 35.95 179.276 35.95C178.626 35.95 178.576 35.85 178.576 35C178.576 34.45 178.776 34.3 179.326 34.3C181.376 34.3 183.376 34.3 185.426 34.3C186.076 34.3 186.226 34.4 186.226 35.1C186.226 35.85 186.126 36 185.426 36C184.376 35.95 183.376 35.95 182.376 35.95Z" fill="black"/>
<path d="M150.076 34.25C151.126 34.25 152.176 34.25 153.226 34.25C153.726 34.25 153.926 34.45 153.926 34.95C153.926 35.75 153.826 35.9 153.226 35.9C151.126 35.9 149.026 35.9 146.976 35.9C146.376 35.9 146.276 35.75 146.276 34.95C146.276 34.4 146.476 34.2 147.026 34.2C148.026 34.25 149.026 34.25 150.076 34.25Z" fill="black"/>
<path d="M162.425 55.6C163.075 55.65 163.725 55.65 164.375 55.6C164.675 55.6 164.925 55.6 165.225 55.6H166.075C166.825 55.6 167.525 55.6 168.275 55.6C168.525 55.6 169.025 55.6 169.075 54.9C169.175 53.1 167.925 51.35 166.225 50.9C164.475 50.45 163.025 50.8 161.925 51.95C160.775 53.15 160.425 54.7 160.975 56.55C161.425 58.2 162.675 59.2 164.525 59.4C164.725 59.4 164.925 59.45 165.125 59.45C166.675 59.45 167.875 58.8 168.675 57.55L168.725 57.5C168.825 57.4 168.925 57.25 168.875 57.05C168.825 56.9 168.725 56.8 168.575 56.7C168.525 56.7 168.525 56.65 168.475 56.65C168.325 56.55 167.925 56.35 167.625 56.85C167.525 57 167.425 57.15 167.325 57.25C166.475 58.2 165.375 58.5 164.075 58.15C163.025 57.85 162.375 57.2 162.075 56.05C161.975 55.75 162.025 55.7 162.025 55.7C162.075 55.65 162.175 55.6 162.425 55.6ZM162.125 54.1C162.425 52.85 163.625 52 164.975 52C166.325 52 167.375 52.8 167.675 54.05C167.725 54.3 167.725 54.4 167.725 54.4C167.725 54.4 167.675 54.45 167.425 54.45C167.075 54.45 166.725 54.45 166.425 54.45C166.175 54.45 165.925 54.45 165.675 54.45C165.175 54.45 164.675 54.45 164.175 54.45C163.575 54.45 162.975 54.45 162.325 54.45C162.175 54.45 162.125 54.45 162.125 54.45C162.075 54.35 162.075 54.3 162.125 54.1Z" fill="#03B3E2"/>
<path d="M153.626 50.9C151.826 50.45 150.376 50.85 149.276 52.05C148.126 53.3 147.826 54.85 148.376 56.65C148.876 58.25 150.026 59.2 151.776 59.4C152.026 59.45 152.276 59.45 152.476 59.45C153.976 59.45 155.176 58.8 156.026 57.55L156.076 57.5C156.176 57.4 156.326 57.25 156.276 57.05C156.276 56.9 156.176 56.8 155.976 56.7L155.926 56.65C155.776 56.55 155.576 56.45 155.326 56.55C155.176 56.6 155.076 56.7 154.976 56.9C154.926 57 154.826 57.15 154.776 57.2C153.976 58.05 153.026 58.4 151.876 58.2C150.726 58 149.976 57.35 149.576 56.25C149.426 55.85 149.476 55.75 149.476 55.7C149.476 55.7 149.576 55.6 149.976 55.65C150.626 55.7 151.226 55.7 151.876 55.7C152.126 55.7 152.426 55.7 152.676 55.7H153.526C154.226 55.7 154.926 55.7 155.626 55.7C155.976 55.7 156.376 55.65 156.426 55C156.576 53.05 155.376 51.35 153.626 50.9ZM155.126 54.35C155.126 54.35 155.026 54.45 154.676 54.4C154.376 54.35 154.076 54.35 153.776 54.35C153.526 54.35 153.276 54.35 153.076 54.35C152.576 54.35 152.126 54.35 151.626 54.35C151.026 54.35 150.426 54.35 149.876 54.35C149.626 54.35 149.576 54.3 149.576 54.3C149.576 54.3 149.526 54.25 149.576 54.05C149.826 52.95 150.976 52 152.126 51.95C153.626 51.85 154.676 52.5 155.076 53.75C155.176 54.2 155.126 54.3 155.126 54.35Z" fill="#03B3E2"/>
<path d="M177.826 52.65C177.726 52.45 177.576 52.25 177.376 52.05C176.176 50.75 174.276 50.4 172.576 51.1C171.026 51.75 170.026 53.3 170.076 55.1C170.076 57.05 171.276 58.7 172.976 59.25C173.426 59.4 173.876 59.45 174.326 59.45C175.676 59.45 176.976 58.85 177.676 57.85C177.726 57.8 177.726 57.75 177.776 57.75C177.926 57.6 178.076 57.4 178.076 57.15C178.076 57 177.976 56.85 177.826 56.75C177.626 56.6 177.476 56.55 177.276 56.55C177.026 56.6 176.876 56.8 176.726 57C176.676 57.05 176.676 57.1 176.626 57.15C176.176 57.75 175.426 58.2 174.576 58.25C173.726 58.35 172.926 58.1 172.376 57.55C171.676 56.95 171.326 56.1 171.276 55.2C171.276 54.3 171.576 53.45 172.226 52.8C172.826 52.2 173.826 51.9 174.776 52C175.626 52.1 176.326 52.6 176.726 53.3C177.026 53.9 177.526 53.65 177.726 53.6C177.926 53.5 178.026 53.4 178.076 53.25C178.126 53.05 178.026 52.85 177.926 52.75C177.876 52.7 177.826 52.65 177.826 52.65Z" fill="#03B3E2"/>
<path d="M202.126 56.7C201.876 56.55 201.476 56.4 201.076 56.95C200.276 58.1 199.176 58.45 197.826 58.1C196.626 57.8 195.676 56.55 195.626 55.2C195.576 53.9 196.426 52.55 197.576 52.15C198.826 51.7 200.226 52.1 200.976 53.1L201.026 53.2C201.176 53.4 201.326 53.65 201.576 53.7C201.726 53.75 201.926 53.65 202.076 53.55C202.226 53.4 202.326 53.3 202.326 53.1C202.326 52.85 202.176 52.65 202.026 52.5C201.976 52.45 201.976 52.4 201.926 52.4C200.876 50.95 198.926 50.4 197.076 51C195.426 51.55 194.326 53.15 194.326 55.05V55.15C194.326 55.25 194.326 55.3 194.326 55.4C194.426 57.25 195.726 58.9 197.426 59.3C197.826 59.4 198.226 59.45 198.576 59.45C200.076 59.45 201.476 58.75 202.076 57.6L202.126 57.55C202.226 57.45 202.326 57.25 202.326 57.05C202.376 56.9 202.276 56.8 202.126 56.7Z" fill="#03B3E2"/>
<path d="M181.976 52.15C182.526 52.2 183.076 52.15 183.626 52.15H183.876C183.926 52.15 183.926 52.15 183.976 52.15C184.126 52.15 184.326 52.15 184.476 52C184.576 51.9 184.626 51.75 184.626 51.55C184.626 51.35 184.576 51.2 184.476 51.05C184.326 50.85 184.076 50.9 183.826 50.9C183.626 50.9 183.476 50.9 183.326 50.9C182.976 50.9 182.576 50.9 182.226 50.9C181.926 50.95 181.776 50.9 181.726 50.85C181.676 50.8 181.626 50.65 181.676 50.4C181.726 50.05 181.726 49.7 181.676 49.4C181.676 49.2 181.676 49.05 181.676 48.85C181.676 48.6 181.676 48.15 181.076 48.1C180.826 48.1 180.676 48.15 180.576 48.25C180.426 48.4 180.426 48.65 180.426 48.85C180.426 49 180.426 49.15 180.426 49.35V49.6C180.426 50.7 180.426 50.7 179.376 50.9C179.076 50.95 178.826 51.05 178.776 51.5C178.776 51.7 178.826 51.85 178.926 51.95C179.076 52.1 179.276 52.1 179.426 52.1H179.526C179.976 52.15 180.326 52.15 180.376 52.25C180.476 52.35 180.476 52.7 180.476 53.2V55.25C180.476 55.75 180.476 56.2 180.476 56.7C180.526 57.7 180.826 58.5 181.476 58.95C181.876 59.25 182.326 59.35 182.826 59.35C183.126 59.35 183.476 59.3 183.876 59.2C183.926 59.2 183.976 59.2 183.976 59.15C184.126 59.1 184.376 59.05 184.526 58.85C184.626 58.7 184.626 58.55 184.576 58.35C184.526 58.15 184.426 58 184.276 57.9C184.076 57.8 183.876 57.85 183.726 57.9C183.676 57.9 183.626 57.95 183.576 57.95C182.976 58.1 182.476 58.05 182.226 57.8C181.926 57.6 181.776 57.15 181.776 56.55C181.776 55.8 181.776 55.05 181.776 54.35C181.776 53.7 181.776 53 181.776 52.35C181.776 52.15 181.826 52.1 181.826 52.1C181.676 52.15 181.726 52.15 181.976 52.15Z" fill="#03B3E2"/>
<path d="M189.376 50.8C189.326 50.8 189.276 50.8 189.276 50.8C187.576 50.95 186.126 52.45 186.076 54.3C186.076 54.75 186.076 55.25 186.076 55.7C186.076 55.9 186.076 56.15 186.076 56.35V56.9C186.076 57.4 186.076 57.85 186.076 58.35C186.076 58.4 186.076 58.45 186.076 58.5C186.076 58.7 186.026 58.95 186.226 59.1C186.326 59.2 186.476 59.25 186.726 59.25H186.776C186.976 59.25 187.176 59.2 187.276 59.05C187.426 58.85 187.426 58.65 187.376 58.5C187.376 58.45 187.376 58.4 187.376 58.35C187.376 57.85 187.376 57.4 187.376 56.9C187.376 56.1 187.376 55.25 187.426 54.45C187.526 53.05 188.176 52.25 189.476 52C189.526 52 189.576 52 189.626 52C189.776 52 190.026 52 190.176 51.85C190.276 51.75 190.326 51.55 190.276 51.35C190.276 51.15 190.176 51 190.026 50.9C189.826 50.75 189.576 50.8 189.376 50.8Z" fill="#03B3E2"/>
<path d="M159.225 58.35C159.225 57.1 159.225 55.8 159.225 54.55V53.35V52.05C159.225 50.75 159.225 49.45 159.225 48.15C159.225 48.1 159.225 48.05 159.225 48C159.225 47.8 159.275 47.55 159.075 47.4C158.975 47.25 158.775 47.2 158.525 47.25C158.325 47.25 158.175 47.35 158.025 47.45C157.875 47.65 157.925 47.85 157.925 48.05C157.925 48.1 157.925 48.15 157.925 48.2C157.925 51.4 157.925 54.75 157.925 58.4C157.925 58.45 157.925 58.5 157.925 58.55C157.925 58.75 157.875 59 158.075 59.15C158.175 59.25 158.325 59.3 158.525 59.3C158.575 59.3 158.575 59.3 158.625 59.3C158.825 59.3 158.975 59.2 159.125 59.1C159.275 58.9 159.225 58.7 159.225 58.5C159.225 58.45 159.225 58.4 159.225 58.35Z" fill="#03B3E2"/>
<path d="M192.776 58.5C192.776 57.65 192.776 56.85 192.776 56V55.1V51.8V51.7C192.776 51.5 192.776 51.25 192.626 51.1C192.526 51 192.326 50.95 192.126 50.95C191.926 50.95 191.776 51 191.676 51.15C191.526 51.3 191.526 51.55 191.576 51.7C191.576 51.75 191.576 51.75 191.576 51.8C191.576 54.05 191.576 56.25 191.576 58.5V58.6C191.576 58.8 191.576 59 191.726 59.2C191.826 59.3 191.976 59.35 192.176 59.35H192.226C192.826 59.3 192.826 58.85 192.826 58.65L192.776 58.5Z" fill="#03B3E2"/>
<path d="M192.176 48.6C191.726 48.6 191.426 48.85 191.426 49.3C191.426 49.75 191.676 50 192.126 50.05C192.376 50.05 192.576 49.95 192.676 49.8C192.776 49.7 192.876 49.55 192.826 49.25C192.826 48.9 192.576 48.6 192.176 48.6Z" fill="#03B3E2"/>
<path d="M48.9817 11.8763C31.9441 11.8763 18.1621 25.108 18.1621 41.4653C18.1621 57.8225 31.9441 71.0542 48.9817 71.0542C66.0193 71.0542 79.8013 57.8225 79.8013 41.4653C79.8013 25.108 65.9831 11.8763 48.9817 11.8763ZM48.9817 66.7131C34.4401 66.7131 22.6838 55.3915 22.6838 41.4653C22.6838 27.539 34.4762 16.2174 48.9817 16.2174C63.4872 16.2174 75.2797 27.539 75.2797 41.4653C75.2797 55.3915 63.5234 66.7131 48.9817 66.7131Z" fill="#F9DC79"/>
<path d="M86.0595 41.4653H81.2846C80.742 41.4653 80.4526 40.8402 80.8506 40.4581L85.9872 35.4225C86.2765 35.1446 86.3851 34.7626 86.3127 34.4153C82.8763 17.6413 67.5026 5 49.0181 5C28.0376 5 11 21.3225 11 41.5C11 61.6427 28.0376 78 49.0181 78C69.7092 78 86.5298 62.1289 87 42.4029C87 41.8473 86.5659 41.4653 86.0595 41.4653ZM48.9819 71.0542C31.9443 71.0542 18.1623 57.8225 18.1623 41.4653C18.1623 25.108 31.9443 11.8763 48.9819 11.8763C66.0195 11.8763 79.8015 25.108 79.8015 41.4653C79.8015 57.8225 65.9833 71.0542 48.9819 71.0542Z" fill="#F7BD19"/>
</svg>
